<?xml version="1.0" standalone="no"?>
<!DOCTYPE svg PUBLIC "-//W3C//DTD SVG 20010904//EN"
 "http://www.w3.org/TR/2001/REC-SVG-20010904/DTD/svg10.dtd">
<svg version="1.0" xmlns="http://www.w3.org/2000/svg"
 width="189.000000pt" height="62.000000pt" viewBox="0 0 189.000000 62.000000"
 preserveAspectRatio="xMidYMid meet">

<g transform="translate(0.000000,62.000000) scale(0.100000,-0.100000)"
fill="#000000" stroke="none">
<path d="M1268 571 c-58 -19 -118 -51 -137 -75 -8 -10 -7 -22 4 -49 8 -20 15
-61 15 -92 l0 -55 250 0 250 0 0 53 c1 28 7 70 15 92 15 40 15 40 -17 68 -82
69 -262 97 -380 58z"/>
<path d="M985 478 c-52 -30 -62 -102 -20 -144 24 -24 25 -30 25 -144 l0 -120
65 0 65 0 0 181 0 181 -29 29 c-31 31 -70 37 -106 17z"/>
<path d="M1709 461 l-29 -29 0 -181 0 -181 65 0 65 0 0 120 c0 117 1 122 26
143 43 37 34 116 -16 142 -44 23 -78 19 -111 -14z"/>
<path d="M624 439 c-10 -17 13 -36 27 -22 12 12 4 33 -11 33 -5 0 -12 -5 -16
-11z"/>
<path d="M10 420 c0 -5 7 -10 15 -10 12 0 15 -17 15 -90 0 -73 -3 -90 -15 -90
-8 0 -15 -4 -15 -10 0 -14 110 -12 139 3 13 6 29 19 34 28 15 23 0 67 -25 75
-19 6 -19 7 -5 16 24 13 22 65 -2 78 -25 13 -141 13 -141 0z m135 -30 c9 -30
-12 -50 -51 -50 -32 0 -34 2 -34 35 0 34 1 35 39 35 31 0 41 -4 46 -20z m3
-82 c15 -15 15 -51 0 -66 -7 -7 -29 -12 -50 -12 l-38 0 0 45 0 45 38 0 c21 0
43 -5 50 -12z"/>
<path d="M401 417 c27 -21 79 -122 79 -155 0 -19 -7 -35 -17 -41 -14 -8 -7
-10 32 -10 39 0 46 2 33 10 -27 15 -22 68 13 132 17 31 35 57 40 57 5 0 9 5 9
10 0 6 -13 10 -30 10 -29 0 -41 -15 -19 -22 12 -4 -21 -81 -39 -92 -5 -3 -18
15 -31 41 -17 35 -19 48 -10 59 9 12 4 14 -32 14 -37 -1 -41 -3 -28 -13z"/>
<path d="M706 414 c-9 -24 -7 -64 3 -64 5 0 11 12 13 28 2 21 9 28 31 30 l27
3 0 -89 c0 -82 -2 -90 -22 -100 -19 -9 -13 -11 40 -11 40 -1 61 3 57 9 -3 6
-15 10 -26 10 -17 0 -19 8 -19 90 l0 90 29 0 c23 0 30 -6 39 -32 l10 -33 1 43
1 42 -89 0 c-72 0 -90 -3 -95 -16z"/>
<path d="M234 374 c-15 -7 0 -133 19 -152 13 -13 23 -14 52 -5 19 6 35 7 35 2
0 -5 9 -9 20 -9 11 0 20 5 20 10 0 6 -4 10 -10 10 -6 0 -10 32 -10 75 0 76 -3
82 -30 65 -11 -7 -11 -10 -2 -10 10 0 12 -16 10 -62 l-3 -63 -35 0 -35 0 -3
73 c-3 70 -5 75 -28 66z"/>
<path d="M610 370 c0 -5 5 -10 10 -10 14 0 13 -123 -2 -138 -9 -9 -3 -12 28
-11 21 0 33 3 27 6 -9 3 -13 30 -13 84 0 78 0 79 -25 79 -14 0 -25 -4 -25 -10z"/>
<path d="M1150 190 l0 -80 250 0 250 0 0 80 0 80 -250 0 -250 0 0 -80z"/>
</g>
</svg>
